<mxfile host="app.diagrams.net" modified="2022-07-05T00:20:38.129Z" agent="5.0 (Windows NT 10.0; Win64; x64) AppleWebKit/537.36 (KHTML, like Gecko) Chrome/103.0.0.0 Safari/537.36" etag="bap7tWlJK7LkBFTsUCtu" version="16.4.6" type="github">
  <diagram name="Page-1" id="74e2e168-ea6b-b213-b513-2b3c1d86103e">
    <mxGraphModel dx="868" dy="554" grid="1" gridSize="10" guides="1" tooltips="1" connect="1" arrows="1" fold="1" page="1" pageScale="1" pageWidth="1100" pageHeight="850" background="none" math="0" shadow="0">
      <root>
        <mxCell id="0" />
        <mxCell id="1" parent="0" />
        <mxCell id="ebFuIRtEAK3uJzIBjcjf-127" value="" style="group;verticalAlign=middle;fillColor=#cce5ff;strokeColor=#36393d;opacity=30;" vertex="1" connectable="0" parent="1">
          <mxGeometry x="240" y="120" width="520" height="550.0000000000001" as="geometry" />
        </mxCell>
        <mxCell id="ebFuIRtEAK3uJzIBjcjf-86" value="" style="endArrow=none;html=1;rounded=0;fontFamily=Times New Roman;fontSize=12;" edge="1" parent="ebFuIRtEAK3uJzIBjcjf-127">
          <mxGeometry width="50" height="50" relative="1" as="geometry">
            <mxPoint as="sourcePoint" />
            <mxPoint x="520" as="targetPoint" />
          </mxGeometry>
        </mxCell>
        <mxCell id="ebFuIRtEAK3uJzIBjcjf-87" value="" style="endArrow=none;html=1;rounded=0;fontFamily=Times New Roman;fontSize=12;" edge="1" parent="ebFuIRtEAK3uJzIBjcjf-127">
          <mxGeometry width="50" height="50" relative="1" as="geometry">
            <mxPoint as="sourcePoint" />
            <mxPoint y="550" as="targetPoint" />
          </mxGeometry>
        </mxCell>
        <mxCell id="ebFuIRtEAK3uJzIBjcjf-88" value="" style="endArrow=none;html=1;rounded=0;fontFamily=Times New Roman;fontSize=12;" edge="1" parent="ebFuIRtEAK3uJzIBjcjf-127">
          <mxGeometry width="50" height="50" relative="1" as="geometry">
            <mxPoint x="520" as="sourcePoint" />
            <mxPoint x="520" y="550" as="targetPoint" />
          </mxGeometry>
        </mxCell>
        <mxCell id="ebFuIRtEAK3uJzIBjcjf-89" value="" style="endArrow=none;html=1;rounded=0;fontFamily=Times New Roman;fontSize=12;verticalAlign=middle;fontColor=default;sketch=0;" edge="1" parent="ebFuIRtEAK3uJzIBjcjf-127">
          <mxGeometry width="50" height="50" relative="1" as="geometry">
            <mxPoint y="550.0000000000001" as="sourcePoint" />
            <mxPoint x="520" y="550.0000000000001" as="targetPoint" />
          </mxGeometry>
        </mxCell>
        <mxCell id="ebFuIRtEAK3uJzIBjcjf-90" value="" style="endArrow=none;html=1;rounded=0;fontFamily=Times New Roman;fontSize=12;" edge="1" parent="ebFuIRtEAK3uJzIBjcjf-127">
          <mxGeometry width="50" height="50" relative="1" as="geometry">
            <mxPoint x="260" y="1.1368683772161603e-13" as="sourcePoint" />
            <mxPoint x="260" y="550" as="targetPoint" />
          </mxGeometry>
        </mxCell>
        <mxCell id="ebFuIRtEAK3uJzIBjcjf-91" value="" style="endArrow=none;html=1;rounded=0;fontFamily=Times New Roman;fontSize=12;" edge="1" parent="ebFuIRtEAK3uJzIBjcjf-127">
          <mxGeometry width="50" height="50" relative="1" as="geometry">
            <mxPoint y="50.000000000000114" as="sourcePoint" />
            <mxPoint x="520" y="50.000000000000114" as="targetPoint" />
          </mxGeometry>
        </mxCell>
        <mxCell id="ebFuIRtEAK3uJzIBjcjf-92" value="Anak" style="text;html=1;resizable=0;autosize=1;align=center;verticalAlign=middle;points=[];fillColor=none;strokeColor=none;rounded=0;fontFamily=Times New Roman;fontSize=20;opacity=30;fontStyle=1" vertex="1" parent="ebFuIRtEAK3uJzIBjcjf-127">
          <mxGeometry x="100" y="10" width="60" height="30" as="geometry" />
        </mxCell>
        <mxCell id="ebFuIRtEAK3uJzIBjcjf-93" value="Aplikasi" style="text;html=1;resizable=0;autosize=1;align=center;verticalAlign=middle;points=[];fillColor=none;strokeColor=none;rounded=0;fontFamily=Times New Roman;fontSize=20;opacity=30;fontStyle=1" vertex="1" parent="ebFuIRtEAK3uJzIBjcjf-127">
          <mxGeometry x="346" y="9" width="90" height="30" as="geometry" />
        </mxCell>
        <mxCell id="ebFuIRtEAK3uJzIBjcjf-94" value="" style="strokeWidth=2;html=1;shape=mxgraph.flowchart.start_1;whiteSpace=wrap;fontFamily=Times New Roman;fontSize=20;opacity=30;verticalAlign=middle;sketch=0;" vertex="1" parent="ebFuIRtEAK3uJzIBjcjf-127">
          <mxGeometry x="80" y="71" width="100" height="60" as="geometry" />
        </mxCell>
        <mxCell id="ebFuIRtEAK3uJzIBjcjf-95" value="&lt;span style=&quot;font-weight: normal&quot;&gt;&lt;font style=&quot;font-size: 12px&quot;&gt;Mulai&lt;/font&gt;&lt;/span&gt;" style="text;html=1;resizable=0;autosize=1;align=center;verticalAlign=middle;points=[];rounded=0;fontFamily=Times New Roman;fontSize=20;opacity=30;fontStyle=1;sketch=0;" vertex="1" parent="ebFuIRtEAK3uJzIBjcjf-127">
          <mxGeometry x="110" y="80" width="40" height="30" as="geometry" />
        </mxCell>
        <mxCell id="ebFuIRtEAK3uJzIBjcjf-99" value="" style="strokeWidth=2;html=1;shape=mxgraph.flowchart.start_1;whiteSpace=wrap;fontFamily=Times New Roman;fontSize=20;opacity=30;verticalAlign=middle;sketch=0;" vertex="1" parent="ebFuIRtEAK3uJzIBjcjf-127">
          <mxGeometry x="80" y="470" width="100" height="60" as="geometry" />
        </mxCell>
        <mxCell id="ebFuIRtEAK3uJzIBjcjf-104" value="" style="endArrow=classic;html=1;rounded=0;fontFamily=Times New Roman;fontSize=12;exitX=0.5;exitY=1;exitDx=0;exitDy=0;entryX=0.5;entryY=0;entryDx=0;entryDy=0;verticalAlign=middle;fontColor=default;sketch=0;" edge="1" parent="ebFuIRtEAK3uJzIBjcjf-127">
          <mxGeometry width="50" height="50" relative="1" as="geometry">
            <mxPoint x="130" y="220" as="sourcePoint" />
            <mxPoint x="130" y="260" as="targetPoint" />
          </mxGeometry>
        </mxCell>
        <mxCell id="ebFuIRtEAK3uJzIBjcjf-105" value="" style="endArrow=classic;html=1;rounded=0;fontFamily=Times New Roman;fontSize=12;exitX=0.5;exitY=1;exitDx=0;exitDy=0;entryX=0.5;entryY=0;entryDx=0;entryDy=0;verticalAlign=middle;fontColor=default;sketch=0;" edge="1" parent="ebFuIRtEAK3uJzIBjcjf-127">
          <mxGeometry width="50" height="50" relative="1" as="geometry">
            <mxPoint x="129.75" y="130.0000000000001" as="sourcePoint" />
            <mxPoint x="129.75" y="169.9999999999999" as="targetPoint" />
          </mxGeometry>
        </mxCell>
        <mxCell id="ebFuIRtEAK3uJzIBjcjf-107" value="" style="rounded=0;whiteSpace=wrap;html=1;fontFamily=Times New Roman;fontSize=12;opacity=30;" vertex="1" parent="ebFuIRtEAK3uJzIBjcjf-127">
          <mxGeometry x="80" y="170" width="100" height="50" as="geometry" />
        </mxCell>
        <mxCell id="ebFuIRtEAK3uJzIBjcjf-108" value="" style="rounded=0;whiteSpace=wrap;html=1;fontFamily=Times New Roman;fontSize=12;opacity=30;" vertex="1" parent="ebFuIRtEAK3uJzIBjcjf-127">
          <mxGeometry x="80" y="260" width="100" height="50" as="geometry" />
        </mxCell>
        <mxCell id="ebFuIRtEAK3uJzIBjcjf-109" value="" style="rounded=0;whiteSpace=wrap;html=1;fontFamily=Times New Roman;fontSize=12;opacity=30;" vertex="1" parent="ebFuIRtEAK3uJzIBjcjf-127">
          <mxGeometry x="80" y="380" width="100" height="50" as="geometry" />
        </mxCell>
        <mxCell id="ebFuIRtEAK3uJzIBjcjf-110" value="" style="endArrow=classic;html=1;rounded=0;fontFamily=Times New Roman;fontSize=12;exitX=0.5;exitY=1;exitDx=0;exitDy=0;verticalAlign=middle;fontColor=default;sketch=0;" edge="1" parent="ebFuIRtEAK3uJzIBjcjf-127">
          <mxGeometry width="50" height="50" relative="1" as="geometry">
            <mxPoint x="130" y="310" as="sourcePoint" />
            <mxPoint x="339" y="319" as="targetPoint" />
            <Array as="points">
              <mxPoint x="130" y="320" />
            </Array>
          </mxGeometry>
        </mxCell>
        <mxCell id="ebFuIRtEAK3uJzIBjcjf-112" value="" style="rounded=0;whiteSpace=wrap;html=1;fontFamily=Times New Roman;fontSize=12;opacity=30;" vertex="1" parent="ebFuIRtEAK3uJzIBjcjf-127">
          <mxGeometry x="340" y="380" width="100" height="50" as="geometry" />
        </mxCell>
        <mxCell id="ebFuIRtEAK3uJzIBjcjf-113" value="&lt;span style=&quot;font-weight: normal&quot;&gt;&lt;font style=&quot;font-size: 12px&quot;&gt;Membuka aplikasi&lt;/font&gt;&lt;/span&gt;" style="text;html=1;resizable=0;autosize=1;align=center;verticalAlign=middle;points=[];rounded=0;fontFamily=Times New Roman;fontSize=20;opacity=30;fontStyle=1;sketch=0;" vertex="1" parent="ebFuIRtEAK3uJzIBjcjf-127">
          <mxGeometry x="80" y="174" width="100" height="30" as="geometry" />
        </mxCell>
        <mxCell id="ebFuIRtEAK3uJzIBjcjf-114" value="&lt;span style=&quot;font-weight: normal&quot;&gt;&lt;font style=&quot;font-size: 12px&quot;&gt;Membuka menu&lt;/font&gt;&lt;/span&gt;" style="text;html=1;resizable=0;autosize=1;align=center;verticalAlign=middle;points=[];rounded=0;fontFamily=Times New Roman;fontSize=20;opacity=30;fontStyle=1;sketch=0;" vertex="1" parent="ebFuIRtEAK3uJzIBjcjf-127">
          <mxGeometry x="85" y="270" width="90" height="30" as="geometry" />
        </mxCell>
        <mxCell id="ebFuIRtEAK3uJzIBjcjf-115" value="&lt;span style=&quot;font-weight: normal&quot;&gt;&lt;font style=&quot;font-size: 12px&quot;&gt;Mencari kosakata&amp;nbsp;&lt;br&gt;yang di inginkan&lt;br&gt;&lt;br&gt;&lt;/font&gt;&lt;/span&gt;" style="text;html=1;resizable=0;autosize=1;align=center;verticalAlign=middle;points=[];rounded=0;fontFamily=Times New Roman;fontSize=20;opacity=30;fontStyle=1;sketch=0;spacing=1;spacingTop=13;" vertex="1" parent="ebFuIRtEAK3uJzIBjcjf-127">
          <mxGeometry x="75" y="360" width="110" height="100" as="geometry" />
        </mxCell>
        <mxCell id="ebFuIRtEAK3uJzIBjcjf-116" value="&lt;span style=&quot;font-weight: normal&quot;&gt;&lt;font style=&quot;font-size: 12px&quot;&gt;Selesai&lt;br&gt;&lt;br&gt;&lt;/font&gt;&lt;/span&gt;" style="text;html=1;resizable=0;autosize=1;align=center;verticalAlign=middle;points=[];rounded=0;fontFamily=Times New Roman;fontSize=20;opacity=30;fontStyle=1;sketch=0;spacing=1;spacingTop=13;" vertex="1" parent="ebFuIRtEAK3uJzIBjcjf-127">
          <mxGeometry x="105" y="465" width="50" height="70" as="geometry" />
        </mxCell>
        <mxCell id="ebFuIRtEAK3uJzIBjcjf-118" value="&lt;span style=&quot;font-weight: normal&quot;&gt;&lt;font style=&quot;font-size: 12px&quot;&gt;Menampilkan&amp;nbsp;&lt;br&gt;terjemahan kata&lt;br&gt;&lt;br&gt;&lt;br&gt;&lt;/font&gt;&lt;/span&gt;" style="text;html=1;resizable=0;autosize=1;align=center;verticalAlign=middle;points=[];rounded=0;fontFamily=Times New Roman;fontSize=20;opacity=30;fontStyle=1;sketch=0;" vertex="1" parent="ebFuIRtEAK3uJzIBjcjf-127">
          <mxGeometry x="345" y="371" width="90" height="110" as="geometry" />
        </mxCell>
        <mxCell id="ebFuIRtEAK3uJzIBjcjf-111" value="" style="rounded=0;whiteSpace=wrap;html=1;fontFamily=Times New Roman;fontSize=12;opacity=30;" vertex="1" parent="ebFuIRtEAK3uJzIBjcjf-127">
          <mxGeometry x="340" y="292" width="100" height="50" as="geometry" />
        </mxCell>
        <mxCell id="ebFuIRtEAK3uJzIBjcjf-117" value="&lt;span style=&quot;font-weight: normal&quot;&gt;&lt;font style=&quot;font-size: 12px&quot;&gt;Menampilkan menu&lt;br&gt;aplikasi&lt;br&gt;&lt;br&gt;&lt;/font&gt;&lt;/span&gt;" style="text;html=1;resizable=0;autosize=1;align=center;verticalAlign=middle;points=[];rounded=0;fontFamily=Times New Roman;fontSize=20;opacity=30;fontStyle=1;sketch=0;" vertex="1" parent="ebFuIRtEAK3uJzIBjcjf-127">
          <mxGeometry x="335" y="281" width="110" height="90" as="geometry" />
        </mxCell>
        <mxCell id="ebFuIRtEAK3uJzIBjcjf-122" value="" style="endArrow=classic;html=1;rounded=0;sketch=0;fontFamily=Times New Roman;fontSize=12;fontColor=default;exitX=0.5;exitY=1;exitDx=0;exitDy=0;entryX=0.5;entryY=0;entryDx=0;entryDy=0;" edge="1" parent="ebFuIRtEAK3uJzIBjcjf-127" source="ebFuIRtEAK3uJzIBjcjf-111" target="ebFuIRtEAK3uJzIBjcjf-109">
          <mxGeometry width="50" height="50" relative="1" as="geometry">
            <mxPoint x="130" y="420" as="sourcePoint" />
            <mxPoint x="200" y="370" as="targetPoint" />
            <Array as="points">
              <mxPoint x="390" y="360" />
              <mxPoint x="130" y="360" />
            </Array>
          </mxGeometry>
        </mxCell>
        <mxCell id="ebFuIRtEAK3uJzIBjcjf-126" value="" style="endArrow=classic;html=1;rounded=0;sketch=0;fontFamily=Times New Roman;fontSize=12;fontColor=default;exitX=0.5;exitY=1;exitDx=0;exitDy=0;entryX=0.5;entryY=0;entryDx=0;entryDy=0;entryPerimeter=0;" edge="1" parent="ebFuIRtEAK3uJzIBjcjf-127" source="ebFuIRtEAK3uJzIBjcjf-112" target="ebFuIRtEAK3uJzIBjcjf-99">
          <mxGeometry width="50" height="50" relative="1" as="geometry">
            <mxPoint x="210" y="490" as="sourcePoint" />
            <mxPoint x="260" y="440" as="targetPoint" />
            <Array as="points">
              <mxPoint x="390" y="450" />
              <mxPoint x="130" y="450" />
            </Array>
          </mxGeometry>
        </mxCell>
      </root>
    </mxGraphModel>
  </diagram>
</mxfile>
